<svg xmlns="http://www.w3.org/2000/svg" width="107" height="45" fill="none">
  <path fill="#faf4ea" d="M4.875 9.738 3.094 8.66Q1.418 7.64.704 6.656 0 5.66 0 4.371q0-1.934 1.336-3.14Q2.683.022 4.828.022q2.05 0 3.762 1.149v2.66q-1.77-1.7-3.809-1.7-1.148 0-1.886.54-.74.527-.739 1.36 0 .737.54 1.382.538.645 1.745 1.348l1.793 1.054q3 1.782 3 4.547 0 1.97-1.324 3.2-1.312 1.23-3.422 1.23-2.426 0-4.418-1.488v-2.977q1.898 2.403 4.395 2.403 1.102 0 1.828-.61.738-.621.738-1.547 0-1.5-2.156-2.836M23.355.234H25.7v16.371h-2.344V9.48h-9.199v7.125h-2.344V.235h2.344v7.078h9.2zM37.36 0q3.798 0 6.317 2.402 2.53 2.403 2.531 6.024 0 3.621-2.555 6-2.543 2.367-6.422 2.367-3.702 0-6.175-2.367-2.46-2.379-2.461-5.953 0-3.67 2.484-6.07Q33.562 0 37.36 0m.094 2.227q-2.813 0-4.629 1.757-1.804 1.758-1.804 4.489 0 2.648 1.816 4.406t4.547 1.758q2.742 0 4.57-1.793 1.84-1.794 1.84-4.465 0-2.601-1.84-4.371-1.828-1.781-4.5-1.781M48.95 16.606V.21h5.192q2.343 0 3.738 1.266 1.395 1.265 1.394 3.398 0 1.43-.714 2.531a4.12 4.12 0 0 1-1.957 1.606q-1.243.492-3.563.492h-1.734v7.102zm4.782-14.31h-2.426v5.122h2.566q1.43 0 2.203-.668.774-.68.774-1.934 0-2.52-3.117-2.52M15.89 40q0 2.098-1.442 3.352-1.43 1.254-4.008 1.254H1.055V28.363h7.851q1.524 0 2.649.293 1.137.294 1.828.809.691.504 1.031 1.195t.34 1.512q0 .89-.352 1.652-.351.75-.879 1.242-.515.48-1.043.68 1.665.656 2.532 1.664.879.996.879 2.59m-5.72-6.96q0-1.173-.773-1.56-.773-.386-2.414-.386h-1.03v3.89h1.054q1.676 0 2.414-.386.75-.387.75-1.559m.798 6.76q0-2.085-3.024-2.085H5.953v4.16h1.992q3.024 0 3.024-2.074m25.195 4.806h-5.016l-1.324-3.294H22.77l-1.347 3.294h-5.016l7.184-16.243h5.414zM28.7 38.488l-2.379-5.93-2.402 5.93zm26.707 6.118H49.43L43.219 37v7.605H38.32V28.364h4.899v7.266l5.883-7.266h5.32l-6.047 7.606zm14.38 0H57.538V28.363h12.047v3.258h-7.148v2.977h6.82v3.27h-6.82v3.468h7.347zm19.019 0h-5.262l-1.277-2.883Q81.562 40.14 81 39.414q-.562-.738-1.102-.937-.527-.211-1.37-.211h-.551v6.34h-4.899V28.363h8.332q2.016 0 3.305.82 1.29.821 1.851 1.993.575 1.171.575 2.226 0 1.23-.48 2.086-.47.845-.997 1.23a10 10 0 0 1-1.183.739q.785.457 1.288 1.09.517.621 1.395 2.531zm-6.657-11.11q0-1.125-.738-1.57t-2.402-.445h-1.031v3.913h1.054q1.793 0 2.45-.386.667-.399.667-1.512m24.024-5.133-6.363 8.801v7.441h-4.9v-7.347l-6.48-8.895h5.086l3.726 5.11 3.738-5.11z"/>
</svg>
